<?xml version="1.0" encoding="UTF-8"?>
<svg width="20px" height="20px" viewBox="0 0 20 20" version="1.1" xmlns="http://www.w3.org/2000/svg" xmlns:xlink="http://www.w3.org/1999/xlink">
    <title>Icon-editor</title>
    <g id="灰鲸中台暗色系" stroke="none" stroke-width="1" fill="none" fill-rule="evenodd">
        <g id="成员配置-企业-组织架构" transform="translate(-1270.000000, -373.000000)" fill="#6E6E6E" fill-rule="nonzero">
            <g id="Icon-editor" transform="translate(1270.000000, 373.000000)">
                <g id="编辑" transform="translate(3.000000, 3.000000)">
                    <path d="M11.6059189,1.15298624 L5.24205915,7.58698905 L6.40579628,8.75203686 L12.8220766,2.33902591 L11.6059189,1.15298624 Z M4.07832203,9.91708468 L5.81868566,9.91708468 L4.07832203,8.17476092 L4.07832203,9.91708468 Z M5.82916977,11.0821325 L2.91458491,11.0821325 L2.91458491,8.17476092 L10.8300942,0.334303989 L10.8300942,0.334303956 C11.2761934,-0.111434663 11.9985492,-0.111434663 12.4446484,0.334304022 L13.6608061,1.55183147 L13.6608061,1.55183149 C14.1095489,1.99613307 14.1135521,2.72049958 13.6697499,3.16974573 C13.6667851,3.17274684 13.6638038,3.17573152 13.6608061,3.17869961 L5.82916977,11.0821325 Z M12.8220766,14 L1.16373717,14 L1.16373712,14 C0.521023817,14 0,13.4783894 0,12.8349522 C0,12.8349522 0,12.8349522 0,12.8349522 L0,1.17397809 L0,1.17397792 C0,0.530540735 0.521023817,0.00893009863 1.16373712,0.00893009863 L8.62842929,0.00893009863 L7.45420805,1.17397792 L1.16373712,1.17397792 L1.16373712,12.834952 L12.8115925,12.834952 L12.8115925,6.53739624 L13.9753296,5.37234843 L13.9753296,12.834952 L13.9753296,12.834952 C13.9753296,13.4783892 13.4543058,14 12.8115925,14 L12.8220766,14 Z" id="形状"></path>
                </g>
            </g>
        </g>
    </g>
</svg>