<?xml version="1.0" encoding="UTF-8"?>
<svg width="20px" height="20px" viewBox="0 0 20 20" version="1.1" xmlns="http://www.w3.org/2000/svg" xmlns:xlink="http://www.w3.org/1999/xlink">
    <title>Icon-more</title>
    <g id="灰鲸中台暗色系" stroke="none" stroke-width="1" fill="none" fill-rule="evenodd">
        <g id="成员配置-成员管理" transform="translate(-1336.000000, -323.000000)" fill="#6E6E6E" fill-rule="nonzero">
            <g id="编组-7" transform="translate(240.000000, 70.000000)">
                <g id="Icon-more" transform="translate(1096.000000, 253.000000)">
                    <path d="M5.55555795,12 L5.55555788,12 C4.69644656,12 4,11.3284275 4,10.5 C4,9.67157247 4.69644656,9 5.55555788,9 L5.55555781,9 C6.41466913,9 7.11111569,9.67157247 7.11111569,10.5 C7.11111569,11.3284275 6.41466913,12 5.55555781,12 L5.55555795,12 Z M10.0000001,12 L10,12 C9.14088872,12 8.44444215,11.3284275 8.44444215,10.5 C8.44444215,9.67157247 9.14088872,9 10,9 L9.99999997,9 C10.8591113,9 11.5555578,9.67157247 11.5555578,10.5 C11.5555578,11.3284275 10.8591113,12 9.99999997,12 L10.0000001,12 Z M14.4444423,12 L14.4444422,12 C13.5853309,12 12.8888843,11.3284275 12.8888843,10.5 C12.8888843,9.67157247 13.5853309,9 14.4444422,9 L14.4444421,9 C15.3035534,9 16,9.67157247 16,10.5 C16,11.3284275 15.3035534,12 14.4444421,12 L14.4444423,12 Z" id="形状"></path>
                </g>
            </g>
        </g>
    </g>
</svg>