<?xml version="1.0" encoding="UTF-8"?>
<svg width="20px" height="20px" viewBox="0 0 20 20" version="1.1" xmlns="http://www.w3.org/2000/svg" xmlns:xlink="http://www.w3.org/1999/xlink">
    <title>Icon-delete</title>
    <g id="灰鲸中台暗色系" stroke="none" stroke-width="1" fill="none" fill-rule="evenodd">
        <g id="成员配置-企业-组织架构-编辑部门1" transform="translate(-1350.000000, -373.000000)" fill="#6E6E6E" fill-rule="nonzero">
            <g id="编组" transform="translate(240.000000, 70.000000)">
                <g id="Icon-delete" transform="translate(1110.000000, 303.000000)">
                    <g transform="translate(3.000000, 3.000000)" id="形状">
                        <path d="M4.68547008,2.13892372 L9.26212108,2.13892372 L9.26212108,1.14136946 L4.68547008,1.14136946 L4.68547008,2.14006442 L4.68547008,2.13892372 Z M9.26212108,0 L9.26212103,0 C9.89402584,0 10.4062861,0.511007244 10.4062861,1.14136634 C10.4062861,1.14136634 10.4062861,1.14136634 10.4062861,1.14136634 L10.4062861,2.0145113 L13.3650886,2.01565267 L13.3650886,2.01565267 C13.7157956,2.01570758 14,2.29936162 14,2.64921071 C14,2.99898177 13.7157174,3.28251439 13.3650886,3.28256901 L12.6934634,3.28256901 L12.6946076,12.8586337 L12.6946076,12.8586337 C12.6946076,13.4889928 12.1823473,14 11.5504425,14 C11.5504425,14 11.5504425,14 11.5504425,14 L2.39712486,14 L2.39712481,14 C1.76522001,14 1.25295971,13.4889928 1.25295971,12.8586337 C1.25295971,12.8586337 1.25295971,12.8586337 1.25295971,12.8586337 L1.25295971,3.28256901 L0.635111593,3.28256901 L0.635111595,3.28256901 C0.284404639,3.28262392 0,2.99905979 0,2.64921071 C0,2.29936162 0.28420441,2.01570884 0.634911366,2.01565267 C0.634977811,2.01565266 0.635044255,2.01565266 0.635110699,2.01565267 L3.54129058,2.01565267 L3.54129058,1.14136701 L3.54129058,1.14136718 C3.54129048,0.511008087 4.05355087,0 4.68545411,0 L9.26210512,0 L9.26212108,0 Z M11.4074316,3.29968815 L2.54015954,3.29968815 L2.54015954,12.7148069 L11.4074316,12.7148069 L11.4074316,3.29853341 L11.4074316,3.29968815 Z M5.25754558,4.72525343 L5.25754556,4.72525343 C5.57349718,4.72525341 5.82962733,4.98075705 5.82962733,5.29593582 L5.82962733,9.86139181 L5.82962733,9.86148617 C5.82962733,10.1766649 5.57349719,10.4321686 5.25754557,10.4321686 C4.94159395,10.4321686 4.6854638,10.1766649 4.6854638,9.86148617 C4.6854638,9.86142326 4.6854638,9.86136035 4.6854638,9.86129744 L4.6854638,5.29584145 L4.6854638,5.29584138 C4.6854638,4.98066261 4.94159398,4.72515899 5.2575456,4.72515899 L5.25754558,4.72525343 Z M8.69004557,4.72525343 L8.6900456,4.72525343 C9.00599722,4.72525345 9.26212737,4.98075705 9.26212737,5.29593582 L9.26212737,9.86139181 L9.26212737,9.86148617 C9.26212737,10.1766649 9.00599723,10.4321686 8.69004561,10.4321686 C8.37409398,10.4321686 8.11796384,10.1766649 8.11796384,9.86148617 C8.11796384,9.86142326 8.11796384,9.86136035 8.11796384,9.86129744 L8.11796384,5.29584145 L8.11796384,5.29584138 C8.11796384,4.98066261 8.37409402,4.72515899 8.69004564,4.72515899 L8.69004557,4.72525343 Z"></path>
                    </g>
                </g>
            </g>
        </g>
    </g>
</svg>